<?xml version="1.0" standalone="no"?>
<!DOCTYPE svg PUBLIC "-//W3C//DTD SVG 20010904//EN"
 "http://www.w3.org/TR/2001/REC-SVG-20010904/DTD/svg10.dtd">
<svg version="1.0" xmlns="http://www.w3.org/2000/svg"
 width="140.000000pt" height="140.000000pt" viewBox="0 0 140.000000 140.000000"
 preserveAspectRatio="xMidYMid meet">

<g transform="translate(0.000000,140.000000) scale(0.100000,-0.100000)"
fill="#000000" stroke="none">
<path d="M475 1387 c-3 -7 -5 -52 -3 -98 2 -67 6 -84 18 -84 12 0 15 17 15 94
0 67 -4 96 -12 98 -7 3 -15 -2 -18 -10z"/>
<path d="M615 1387 c-3 -7 -5 -52 -3 -98 2 -67 6 -84 18 -84 12 0 15 17 15 94
0 67 -4 96 -12 98 -7 3 -15 -2 -18 -10z"/>
<path d="M755 1387 c-3 -7 -5 -52 -3 -98 2 -67 6 -84 18 -84 12 0 15 17 15 94
0 67 -4 96 -12 98 -7 3 -15 -2 -18 -10z"/>
<path d="M897 1393 c-12 -11 -8 -181 4 -189 19 -12 29 19 29 93 0 90 -10 119
-33 96z"/>
<path d="M341 1127 c-19 -7 -44 -25 -55 -40 -20 -27 -21 -42 -24 -365 -3 -369
0 -398 51 -436 27 -20 42 -21 340 -24 374 -4 406 -1 447 39 l30 31 0 365 c0
351 -1 366 -20 394 -12 16 -36 33 -58 39 -54 15 -667 12 -711 -3z m712 -38
c45 -20 47 -41 47 -395 l0 -336 -30 -29 -29 -30 -351 3 -352 3 -19 24 c-18 22
-19 44 -19 373 l0 349 25 24 24 25 340 0 c228 0 348 -4 364 -11z"/>
<path d="M404 1028 c-12 -5 -27 -21 -33 -34 -15 -34 -15 -554 0 -587 20 -44
44 -47 335 -47 l276 0 29 29 29 29 0 276 c0 291 -3 315 -47 335 -32 14 -559
14 -589 -1z m584 -40 c17 -17 17 -559 0 -576 -17 -17 -559 -17 -576 0 -17 17
-17 559 0 576 17 17 559 17 576 0z"/>
<path d="M637 843 c-5 -9 -69 -223 -71 -237 0 -6 6 -11 16 -13 11 -3 18 5 23
27 7 30 9 31 53 28 40 -3 47 -7 52 -27 6 -28 27 -39 35 -19 9 23 -68 243 -87
246 -9 2 -18 -1 -21 -5z m42 -111 c7 -24 10 -46 8 -49 -3 -2 -18 -3 -34 -1
l-30 3 15 53 c16 59 23 58 41 -6z"/>
<path d="M787 844 c-4 -4 -7 -63 -7 -131 0 -113 2 -124 18 -121 15 3 17 17 17
127 0 116 -7 146 -28 125z"/>
<path d="M5 919 c-14 -22 14 -30 101 -27 71 2 89 6 89 18 0 12 -18 16 -92 18
-60 2 -94 -1 -98 -9z"/>
<path d="M1205 919 c-14 -22 14 -30 101 -27 71 2 89 6 89 18 0 12 -18 16 -92
18 -60 2 -94 -1 -98 -9z"/>
<path d="M5 779 c-14 -22 14 -30 101 -27 71 2 89 6 89 18 0 12 -18 16 -92 18
-60 2 -94 -1 -98 -9z"/>
<path d="M1205 779 c-14 -22 14 -30 101 -27 71 2 89 6 89 18 0 12 -18 16 -92
18 -60 2 -94 -1 -98 -9z"/>
<path d="M5 639 c-14 -22 14 -30 101 -27 71 2 89 6 89 18 0 12 -18 16 -92 18
-60 2 -94 -1 -98 -9z"/>
<path d="M1205 639 c-14 -22 14 -30 101 -27 71 2 89 6 89 18 0 12 -18 16 -92
18 -60 2 -94 -1 -98 -9z"/>
<path d="M4 499 c-12 -20 19 -29 96 -29 77 0 108 9 96 29 -10 15 -182 15 -192
0z"/>
<path d="M1204 499 c-12 -20 19 -29 96 -29 77 0 108 9 96 29 -10 15 -182 15
-192 0z"/>
<path d="M475 187 c-3 -7 -5 -52 -3 -98 2 -67 6 -84 18 -84 12 0 15 17 15 94
0 67 -4 96 -12 98 -7 3 -15 -2 -18 -10z"/>
<path d="M615 187 c-3 -7 -5 -52 -3 -98 2 -67 6 -84 18 -84 12 0 15 17 15 94
0 67 -4 96 -12 98 -7 3 -15 -2 -18 -10z"/>
<path d="M755 187 c-3 -7 -5 -52 -3 -98 2 -67 6 -84 18 -84 12 0 15 17 15 94
0 67 -4 96 -12 98 -7 3 -15 -2 -18 -10z"/>
<path d="M897 193 c-12 -11 -8 -181 4 -189 19 -12 29 19 29 93 0 90 -10 119
-33 96z"/>
</g>
</svg>
