<?xml version="1.0" standalone="no"?>
<!DOCTYPE svg PUBLIC "-//W3C//DTD SVG 20010904//EN"
 "http://www.w3.org/TR/2001/REC-SVG-20010904/DTD/svg10.dtd">
<svg version="1.0" xmlns="http://www.w3.org/2000/svg"
 width="136.000000pt" height="137.000000pt" viewBox="0 0 136.000000 137.000000"
 preserveAspectRatio="xMidYMid meet">

<g transform="translate(0.000000,137.000000) scale(0.100000,-0.100000)"
fill="#000000" stroke="none">
<path d="M595 1357 c-58 -19 -120 -63 -150 -107 -28 -41 -54 -103 -55 -132 0
-16 -11 -18 -80 -18 -73 0 -83 -3 -105 -25 -24 -24 -25 -28 -25 -185 l0 -160
-48 0 c-83 0 -82 2 -82 -284 l0 -246 -25 -10 c-50 -19 -26 -134 35 -165 43
-22 697 -22 740 0 38 19 60 63 60 115 0 34 -4 42 -25 50 l-25 10 0 249 c0 214
-2 252 -16 265 -13 14 -54 16 -290 16 l-274 0 0 160 0 160 79 0 79 0 7 -37
c16 -85 79 -164 164 -205 35 -17 64 -22 121 -22 57 0 86 5 121 22 85 42 148
120 164 205 l7 38 67 -3 66 -3 3 -157 3 -158 -68 0 c-72 0 -100 -13 -122 -57
-7 -14 -11 -116 -11 -305 0 -310 0 -312 60 -343 41 -21 289 -21 330 0 59 30
61 46 58 360 l-3 285 -28 27 c-23 24 -38 29 -100 33 l-72 5 -5 167 c-3 117 -9
171 -18 180 -7 7 -45 14 -86 16 l-74 4 -7 36 c-16 84 -78 162 -160 202 -56 27
-154 35 -210 17z m185 -54 c82 -33 150 -136 150 -228 0 -93 -69 -195 -156
-231 -44 -19 -146 -18 -192 2 -124 51 -185 207 -128 329 36 79 97 126 191 148
28 7 94 -3 135 -20z m-12 -865 l2 -248 -340 0 -340 0 0 243 c0 134 3 247 7
250 4 4 155 6 337 5 l331 -3 3 -247z m520 235 c12 -10 24 -30 28 -45 l6 -28
-186 0 c-175 0 -186 1 -186 19 0 10 9 30 21 45 20 26 21 26 159 26 117 0 141
-3 158 -17z m27 -298 l0 -180 -182 -3 -183 -2 0 178 c0 98 3 182 7 186 4 3 86
5 182 4 l176 -3 0 -180z m-991 -254 c19 -36 33 -41 107 -41 69 0 96 11 109 46
9 24 11 24 139 24 81 0 132 -4 136 -11 11 -17 -15 -66 -41 -78 -37 -17 -650
-15 -684 2 -27 14 -55 61 -45 77 4 6 60 10 135 10 l129 0 15 -29z m169 14 c-4
-15 -115 -13 -121 3 -3 10 11 12 59 10 36 -2 63 -7 62 -13z m819 -15 c-1 -14
-12 -34 -23 -45 -17 -17 -35 -20 -142 -23 -134 -4 -171 5 -188 42 -25 54 -16
57 178 54 l178 -3 -3 -25z"/>
<path d="M614 1265 c-4 -9 -13 -13 -23 -10 -26 8 -95 -67 -86 -94 5 -15 2 -21
-9 -21 -13 0 -16 -13 -16 -65 0 -48 4 -65 14 -65 8 0 12 -8 9 -23 -4 -17 5
-32 36 -60 24 -22 47 -34 56 -31 8 4 17 -1 21 -10 9 -23 119 -23 128 0 4 9 13
14 21 10 9 -3 32 9 56 31 31 28 40 43 36 60 -3 15 1 23 9 23 10 0 14 17 14 65
0 52 -3 65 -16 65 -11 0 -14 6 -9 21 9 27 -60 102 -86 94 -10 -3 -19 1 -23 10
-4 11 -21 15 -66 15 -45 0 -62 -4 -66 -15z m86 -54 c0 -43 21 -56 52 -31 23
17 27 18 38 5 10 -13 10 -19 -4 -33 -28 -32 -21 -52 19 -52 31 0 35 -3 35 -25
0 -22 -4 -25 -35 -25 -40 0 -47 -20 -19 -52 14 -14 14 -20 4 -33 -11 -13 -15
-12 -38 5 -29 24 -52 12 -52 -26 0 -17 -6 -24 -20 -24 -14 0 -20 7 -20 24 0
38 -23 50 -52 26 -23 -17 -27 -18 -38 -5 -10 13 -10 19 4 33 28 32 21 52 -19
52 -31 0 -35 3 -35 25 0 22 4 25 35 25 40 0 47 20 19 52 -14 14 -14 20 -4 33
11 13 15 12 38 -5 31 -25 52 -12 52 31 0 22 5 29 20 29 15 0 20 -7 20 -29z"/>
<path d="M636 1125 c-43 -44 -17 -110 44 -110 24 0 38 7 52 26 32 43 3 99 -52
99 -16 0 -35 -7 -44 -15z m61 -41 c8 -21 -13 -42 -28 -27 -13 13 -5 43 11 43
6 0 13 -7 17 -16z"/>
<path d="M140 440 l0 -200 290 0 290 0 0 200 0 200 -290 0 -290 0 0 -200z
m540 0 l0 -160 -250 0 -250 0 0 160 0 160 250 0 250 0 0 -160z"/>
<path d="M275 540 c-4 -7 -3 -16 3 -22 14 -14 57 -6 57 12 0 18 -50 26 -60 10z"/>
<path d="M365 540 c-14 -23 11 -30 101 -30 87 0 94 1 94 20 0 19 -7 20 -94 20
-53 0 -98 -4 -101 -10z"/>
<path d="M275 450 c-4 -7 -3 -16 3 -22 14 -14 57 -6 57 12 0 18 -50 26 -60 10z"/>
<path d="M365 450 c-14 -23 11 -30 101 -30 87 0 94 1 94 20 0 19 -7 20 -94 20
-53 0 -98 -4 -101 -10z"/>
<path d="M275 360 c-4 -7 -3 -16 3 -22 14 -14 57 -6 57 12 0 18 -50 26 -60 10z"/>
<path d="M365 360 c-14 -23 11 -30 101 -30 87 0 94 1 94 20 0 19 -7 20 -94 20
-53 0 -98 -4 -101 -10z"/>
<path d="M1094 655 c-9 -22 4 -35 35 -35 35 0 56 21 39 38 -17 17 -68 15 -74
-3z"/>
<path d="M1003 495 c-7 -19 13 -36 37 -32 8 1 15 11 15 22 0 26 -42 34 -52 10z"/>
<path d="M1093 494 c-9 -24 15 -34 88 -34 46 0 70 4 79 15 21 26 0 35 -81 35
-64 0 -81 -3 -86 -16z"/>
<path d="M1004 405 c-4 -9 -2 -21 4 -27 16 -16 47 -5 47 17 0 26 -42 34 -51
10z"/>
<path d="M1094 405 c-11 -27 7 -35 79 -35 78 0 103 9 94 34 -9 22 -165 24
-173 1z"/>
<path d="M1004 315 c-4 -9 -2 -21 4 -27 16 -16 47 -5 47 17 0 26 -42 34 -51
10z"/>
<path d="M1094 315 c-11 -28 7 -35 87 -35 64 0 81 3 86 16 9 25 -16 34 -95 34
-54 0 -74 -4 -78 -15z"/>
<path d="M1092 103 c4 -24 83 -27 83 -3 0 11 -13 16 -43 18 -38 3 -43 1 -40
-15z"/>
</g>
</svg>
