<?xml version="1.0" standalone="no"?>
<!DOCTYPE svg PUBLIC "-//W3C//DTD SVG 20010904//EN"
 "http://www.w3.org/TR/2001/REC-SVG-20010904/DTD/svg10.dtd">
<svg version="1.0" xmlns="http://www.w3.org/2000/svg"
 width="83.000000pt" height="63.000000pt" viewBox="0 0 83.000000 63.000000"
 preserveAspectRatio="xMidYMid meet">

<g transform="translate(0.000000,63.000000) scale(0.100000,-0.100000)"
fill="#000000" stroke="none">
<path d="M180 620 c-49 -14 -88 -40 -123 -80 -93 -109 -66 -278 57 -355 48
-29 54 -30 215 -38 209 -9 302 -22 319 -44 14 -20 15 -23 2 -43 -7 -11 -37
-16 -122 -20 -147 -7 -145 -24 3 -28 104 -2 114 -1 135 19 30 28 31 72 3 100
-11 11 -19 21 -17 22 112 56 136 79 163 156 40 114 -10 236 -119 294 -38 20
-55 22 -266 23 -124 1 -236 -1 -250 -6z m140 -45 c11 -13 6 -15 -31 -15 -97 0
-184 -50 -226 -129 -21 -41 -23 -42 -23 -17 0 57 50 126 115 160 40 21 148 21
165 1z m183 -20 c12 -38 12 -288 0 -335 l-9 -35 -68 -3 -67 -3 8 48 c10 61 10
264 0 321 l-7 43 67 -3 c64 -3 67 -4 76 -33z m177 15 c36 -19 40 -24 40 -60 0
-39 -17 -90 -31 -90 -4 0 -9 11 -13 23 -9 39 -46 77 -94 100 -66 32 -66 47 3
47 36 0 70 -7 95 -20z m-340 -66 c0 -9 -12 -14 -37 -14 -97 -2 -193 -73 -224
-166 -7 -24 -8 -21 -5 20 7 85 79 161 165 176 52 8 101 0 101 -16z m254 -5
c43 -34 71 -106 53 -136 -13 -21 -25 -15 -32 17 -4 16 -20 41 -36 54 -20 17
-29 34 -29 55 0 36 8 38 44 10z m157 -101 c-23 -74 -113 -147 -183 -148 -42 0
-25 33 24 48 23 7 55 23 71 34 34 24 86 103 88 132 1 17 3 16 6 -4 3 -13 0
-41 -6 -62z m-413 5 l3 -53 -33 7 c-69 13 -115 50 -90 75 12 12 69 27 97 25
17 -2 20 -10 23 -54z m245 -41 c5 -24 -6 -41 -25 -42 -5 0 -8 21 -8 46 0 39 2
44 14 35 8 -6 16 -24 19 -39z m-393 18 c14 -25 57 -48 109 -56 39 -6 41 -8 41
-42 l0 -35 -41 7 c-55 9 -90 28 -128 71 -25 29 -29 39 -21 55 14 25 26 25 40
0z m576 -95 c-38 -64 -107 -105 -177 -105 -67 0 -79 25 -16 35 23 4 60 15 82
24 46 21 111 88 122 128 l8 28 3 -33 c2 -22 -5 -48 -22 -77z m-601 -3 c42 -37
100 -62 144 -62 29 0 26 -18 -5 -30 -34 -13 -78 -13 -125 2 -59 17 -76 38 -71
86 2 23 6 42 9 42 3 0 24 -17 48 -38z"/>
</g>
</svg>
