<?xml version="1.0" standalone="no"?>
<!DOCTYPE svg PUBLIC "-//W3C//DTD SVG 20010904//EN"
 "http://www.w3.org/TR/2001/REC-SVG-20010904/DTD/svg10.dtd">
<svg version="1.0" xmlns="http://www.w3.org/2000/svg"
 width="73.000000pt" height="73.000000pt" viewBox="0 0 73.000000 73.000000"
 preserveAspectRatio="xMidYMid meet">

<g transform="translate(0.000000,73.000000) scale(0.100000,-0.100000)"
fill="#000000" stroke="none">
<path d="M139 715 c-43 -23 -78 -115 -44 -115 10 0 15 10 15 28 0 33 32 66 73
76 15 3 27 11 27 16 0 14 -41 11 -71 -5z"/>
<path d="M520 720 c0 -6 14 -13 30 -17 36 -7 70 -46 70 -79 0 -15 6 -24 15
-24 35 0 1 86 -44 113 -32 19 -71 23 -71 7z"/>
<path d="M150 660 c-19 -19 -28 -60 -12 -60 4 0 15 14 24 30 9 17 24 30 33 30
8 0 15 5 15 10 0 17 -39 11 -60 -10z"/>
<path d="M520 670 c0 -5 7 -10 15 -10 9 0 24 -13 33 -30 9 -16 20 -30 25 -30
15 0 6 41 -13 60 -21 21 -60 27 -60 10z"/>
<path d="M227 603 c-4 -3 -7 -66 -7 -140 0 -126 -1 -133 -20 -133 -11 0 -20
-7 -20 -15 0 -12 16 -15 85 -15 l85 0 0 -35 0 -35 -140 0 -140 0 0 -35 c0 -33
-2 -35 -35 -35 l-35 0 0 -80 0 -81 83 3 82 3 0 75 0 75 -32 3 c-27 3 -33 7
-33 28 l0 24 125 0 125 0 0 -25 c0 -22 -4 -25 -35 -25 l-36 0 3 -78 3 -77 80
0 80 0 3 78 3 77 -36 0 c-31 0 -35 3 -35 25 l0 25 125 0 125 0 0 -24 c0 -21
-6 -25 -32 -28 l-33 -3 0 -75 0 -75 83 -3 82 -3 0 81 0 80 -35 0 c-33 0 -35 2
-35 35 l0 35 -140 0 -140 0 0 35 0 35 85 0 c69 0 85 3 85 15 0 8 -9 15 -20 15
-18 0 -20 7 -20 80 l0 80 -60 0 -60 0 0 60 0 60 -78 0 c-43 0 -82 -3 -85 -7z
m63 -38 c0 -18 -5 -25 -20 -25 -15 0 -20 7 -20 25 0 18 5 25 20 25 15 0 20 -7
20 -25z m70 0 c0 -18 -5 -25 -20 -25 -15 0 -20 7 -20 25 0 18 5 25 20 25 15 0
20 -7 20 -25z m-70 -70 c0 -18 -5 -25 -20 -25 -15 0 -20 7 -20 25 0 18 5 25
20 25 15 0 20 -7 20 -25z m70 14 c0 -11 -24 -39 -34 -39 -3 0 -6 11 -6 25 0
18 5 25 20 25 11 0 20 -5 20 -11z m120 -109 l0 -70 -55 0 -55 0 0 70 0 70 55
0 55 0 0 -70z m-190 25 c0 -18 -5 -25 -20 -25 -15 0 -20 7 -20 25 0 18 5 25
20 25 15 0 20 -7 20 -25z m50 0 c0 -14 -4 -25 -10 -25 -5 0 -10 11 -10 25 0
14 5 25 10 25 6 0 10 -11 10 -25z m-50 -70 c0 -18 -5 -25 -20 -25 -15 0 -20 7
-20 25 0 18 5 25 20 25 15 0 20 -7 20 -25z m50 0 c0 -14 -4 -25 -10 -25 -5 0
-10 11 -10 25 0 14 5 25 10 25 6 0 10 -11 10 -25z m-200 -225 c0 -6 -27 -10
-60 -10 -33 0 -60 4 -60 10 0 6 27 10 60 10 33 0 60 -4 60 -10z m280 0 c0 -5
-25 -10 -55 -10 -30 0 -55 5 -55 10 0 6 25 10 55 10 30 0 55 -4 55 -10z m290
0 c0 -6 -27 -10 -60 -10 -33 0 -60 4 -60 10 0 6 27 10 60 10 33 0 60 -4 60
-10z m-570 -75 l0 -35 -60 0 -60 0 0 35 0 35 60 0 60 0 0 -35z m280 0 l0 -35
-55 0 -55 0 0 35 0 35 55 0 55 0 0 -35z m290 0 l0 -35 -60 0 -60 0 0 35 0 35
60 0 60 0 0 -35z"/>
<path d="M390 435 c0 -8 5 -15 10 -15 6 0 10 7 10 15 0 8 -4 15 -10 15 -5 0
-10 -7 -10 -15z"/>
<path d="M440 435 c0 -8 5 -15 10 -15 6 0 10 7 10 15 0 8 -4 15 -10 15 -5 0
-10 -7 -10 -15z"/>
<path d="M390 390 c0 -5 5 -10 10 -10 6 0 10 5 10 10 0 6 -4 10 -10 10 -5 0
-10 -4 -10 -10z"/>
<path d="M440 390 c0 -5 5 -10 10 -10 6 0 10 5 10 10 0 6 -4 10 -10 10 -5 0
-10 -4 -10 -10z"/>
<path d="M50 60 c0 -5 5 -10 10 -10 6 0 10 5 10 10 0 6 -4 10 -10 10 -5 0 -10
-4 -10 -10z"/>
<path d="M90 60 c0 -5 7 -10 15 -10 8 0 15 5 15 10 0 6 -7 10 -15 10 -8 0 -15
-4 -15 -10z"/>
<path d="M330 60 c0 -5 5 -10 10 -10 6 0 10 5 10 10 0 6 -4 10 -10 10 -5 0
-10 -4 -10 -10z"/>
<path d="M380 60 c0 -5 5 -10 10 -10 6 0 10 5 10 10 0 6 -4 10 -10 10 -5 0
-10 -4 -10 -10z"/>
<path d="M610 60 c0 -5 7 -10 15 -10 8 0 15 5 15 10 0 6 -7 10 -15 10 -8 0
-15 -4 -15 -10z"/>
<path d="M660 60 c0 -5 5 -10 10 -10 6 0 10 5 10 10 0 6 -4 10 -10 10 -5 0
-10 -4 -10 -10z"/>
</g>
</svg>
