<?xml version="1.0" standalone="no"?>
<!DOCTYPE svg PUBLIC "-//W3C//DTD SVG 20010904//EN"
 "http://www.w3.org/TR/2001/REC-SVG-20010904/DTD/svg10.dtd">
<svg version="1.0" xmlns="http://www.w3.org/2000/svg"
 width="125.000000pt" height="125.000000pt" viewBox="0 0 125.000000 125.000000"
 preserveAspectRatio="xMidYMid meet">

<g transform="translate(0.000000,125.000000) scale(0.100000,-0.100000)"
fill="#000000" stroke="none">
<path d="M256 1229 c-15 -22 -12 -43 10 -69 7 -8 14 -33 16 -55 l3 -40 68 -3
67 -3 0 -54 0 -55 -48 0 c-26 0 -53 -5 -60 -12 -7 -7 -12 -34 -12 -60 l0 -48
-55 0 -54 0 -3 68 -3 67 -40 3 c-22 2 -47 9 -55 16 -27 23 -49 25 -72 7 -19
-16 -21 -23 -13 -47 8 -23 17 -30 43 -32 22 -2 34 2 38 12 4 9 18 16 35 16 28
0 28 -1 31 -67 l3 -68 73 -3 72 -3 0 -44 0 -45 -104 0 c-80 0 -106 3 -116 15
-17 20 -43 19 -63 -3 -21 -23 -22 -46 -1 -66 20 -20 48 -20 68 -1 11 11 39 15
115 15 l101 0 0 -45 0 -45 -101 0 c-76 0 -104 4 -115 15 -20 19 -48 19 -68 -1
-23 -23 -20 -51 9 -70 23 -15 27 -15 50 0 18 12 49 16 125 16 l100 0 0 -45 0
-44 -72 -3 -73 -3 -3 -67 c-3 -67 -3 -68 -31 -68 -16 0 -31 7 -35 15 -3 9 -18
15 -36 15 -38 0 -59 -35 -41 -69 14 -25 62 -29 81 -7 6 8 30 16 53 18 l42 3 3
68 3 67 54 0 54 0 3 -52 3 -53 55 -5 55 -5 3 -58 3 -57 -71 0 -70 0 0 -44 c0
-25 -6 -48 -14 -55 -24 -20 -26 -51 -5 -72 23 -23 42 -24 63 -3 20 20 21 58 1
74 -8 7 -15 23 -15 36 0 22 4 23 68 26 l67 3 5 75 5 75 43 3 42 3 0 -109 c0
-85 -3 -112 -15 -122 -20 -17 -19 -43 3 -63 24 -22 45 -21 67 3 18 20 15 70
-5 70 -6 0 -10 45 -10 110 l0 110 45 0 45 0 0 -106 c0 -80 -4 -109 -15 -120
-20 -20 -19 -49 1 -69 23 -22 56 -15 73 17 14 24 14 28 -2 46 -14 15 -17 39
-17 126 l0 107 43 -3 42 -3 5 -75 5 -75 68 -3 c63 -3 67 -4 67 -26 0 -13 -7
-29 -15 -36 -8 -7 -15 -25 -15 -41 0 -37 36 -57 69 -40 25 14 29 62 7 81 -8 6
-16 30 -18 53 l-3 42 -68 3 -68 3 3 57 3 57 52 3 52 3 3 52 3 52 57 3 57 3 3
-68 3 -68 42 -3 c23 -2 47 -10 53 -18 7 -7 25 -14 41 -14 37 0 57 36 40 69
-14 25 -62 29 -81 6 -7 -8 -23 -15 -36 -15 -22 0 -23 4 -26 68 l-3 67 -75 5
-75 5 -3 43 -3 42 109 0 c85 0 112 -3 122 -15 17 -20 36 -19 60 5 24 24 25 43
4 64 -20 20 -48 20 -68 1 -11 -11 -40 -15 -120 -15 l-106 0 0 45 0 45 110 0
c65 0 110 -4 110 -10 0 -20 50 -23 70 -5 25 23 25 47 2 68 -23 21 -46 22 -62
2 -10 -12 -37 -15 -122 -15 l-109 0 3 43 3 42 75 5 75 5 3 68 c3 63 4 67 26
67 13 0 29 -7 36 -15 16 -20 54 -19 74 1 21 21 20 40 -3 63 -21 21 -52 19 -72
-5 -7 -8 -30 -14 -55 -14 l-44 0 0 -70 0 -71 -57 3 -58 3 -5 55 -5 55 -52 3
-53 3 0 54 0 54 68 3 67 3 3 42 c2 23 10 47 18 53 7 7 14 25 14 41 0 37 -36
57 -69 40 -25 -14 -30 -68 -6 -77 8 -4 15 -19 15 -35 0 -28 -1 -28 -67 -31
l-68 -3 -3 -72 -3 -73 -44 0 -45 0 0 100 c0 76 4 107 16 125 15 23 15 27 0 50
-19 29 -47 32 -70 9 -20 -20 -20 -48 -1 -68 11 -11 15 -39 15 -115 l0 -101
-45 0 -45 0 0 101 c0 76 4 104 15 115 19 20 19 48 -1 68 -21 21 -47 20 -67 -2
-21 -23 -22 -46 -2 -62 12 -10 15 -36 15 -116 l0 -104 -45 0 -44 0 -3 73 -3
72 -67 3 c-67 3 -68 3 -68 31 0 16 7 31 15 35 22 8 19 63 -4 76 -30 15 -48 12
-65 -11z m54 -29 c0 -5 -7 -10 -15 -10 -8 0 -15 5 -15 10 0 6 7 10 15 10 8 0
15 -4 15 -10z m260 0 c0 -5 -4 -10 -10 -10 -5 0 -10 5 -10 10 0 6 5 10 10 10
6 0 10 -4 10 -10z m130 0 c0 -5 -4 -10 -10 -10 -5 0 -10 5 -10 10 0 6 5 10 10
10 6 0 10 -4 10 -10z m270 0 c0 -5 -7 -10 -15 -10 -8 0 -15 5 -15 10 0 6 7 10
15 10 8 0 15 -4 15 -10z m-910 -245 c0 -8 -4 -15 -10 -15 -5 0 -10 7 -10 15 0
8 5 15 10 15 6 0 10 -7 10 -15z m1150 0 c0 -8 -4 -15 -9 -15 -13 0 -22 16 -14
24 11 11 23 6 23 -9z m-300 -330 l0 -285 -285 0 -285 0 0 285 0 285 285 0 285
0 0 -285z m-850 65 c0 -5 -4 -10 -10 -10 -5 0 -10 5 -10 10 0 6 5 10 10 10 6
0 10 -4 10 -10z m1150 0 c0 -5 -4 -10 -10 -10 -5 0 -10 5 -10 10 0 6 5 10 10
10 6 0 10 -4 10 -10z m0 -131 c0 -5 -4 -9 -10 -9 -5 0 -10 7 -10 16 0 8 5 12
10 9 6 -3 10 -10 10 -16z m-1150 1 c0 -5 -4 -10 -10 -10 -5 0 -10 5 -10 10 0
6 5 10 10 10 6 0 10 -4 10 -10z m0 -265 c0 -8 -4 -15 -10 -15 -5 0 -10 7 -10
15 0 8 5 15 10 15 6 0 10 -7 10 -15z m1150 0 c0 -8 -4 -15 -10 -15 -5 0 -10 7
-10 15 0 8 5 15 10 15 6 0 10 -7 10 -15z m-900 -245 c0 -5 -7 -10 -15 -10 -8
0 -15 5 -15 10 0 6 7 10 15 10 8 0 15 -4 15 -10z m260 0 c0 -5 -4 -10 -10 -10
-5 0 -10 5 -10 10 0 6 5 10 10 10 6 0 10 -4 10 -10z m130 0 c0 -5 -4 -10 -9
-10 -6 0 -13 5 -16 10 -3 6 1 10 9 10 9 0 16 -4 16 -10z m270 0 c0 -5 -7 -10
-15 -10 -8 0 -15 5 -15 10 0 6 7 10 15 10 8 0 15 -4 15 -10z"/>
<path d="M400 625 l0 -225 223 2 222 3 3 223 2 222 -225 0 -225 0 0 -225z
m415 0 l0 -190 -190 0 -190 0 -3 180 c-1 98 0 185 3 192 3 11 45 13 192 11
l188 -3 0 -190z"/>
<path d="M754 727 c-3 -8 -4 -39 -2 -68 2 -40 7 -54 18 -54 20 0 22 126 3 132
-7 3 -15 -2 -19 -10z"/>
</g>
</svg>
