<?xml version="1.0" standalone="no"?>
<!DOCTYPE svg PUBLIC "-//W3C//DTD SVG 20010904//EN"
 "http://www.w3.org/TR/2001/REC-SVG-20010904/DTD/svg10.dtd">
<svg version="1.0" xmlns="http://www.w3.org/2000/svg"
 width="116.000000pt" height="116.000000pt" viewBox="0 0 116.000000 116.000000"
 preserveAspectRatio="xMidYMid meet">

<g transform="translate(0.000000,116.000000) scale(0.100000,-0.100000)"
fill="#000000" stroke="none">
<path d="M12 1148 c-17 -17 -15 -113 2 -127 9 -7 38 -11 73 -9 l58 3 3 58 c2
35 -2 64 -9 73 -14 17 -110 19 -127 2z m106 -65 c-3 -36 -5 -38 -40 -41 l-38
-3 0 40 0 41 41 0 40 0 -3 -37z"/>
<path d="M1012 1148 c-17 -17 -15 -113 2 -127 9 -7 38 -11 73 -9 l58 3 3 58
c2 35 -2 64 -9 73 -14 17 -110 19 -127 2z m106 -65 c-3 -36 -5 -38 -40 -41
l-38 -3 0 40 0 41 41 0 40 0 -3 -37z"/>
<path d="M192 1103 c2 -12 14 -19 38 -21 28 -3 50 -18 107 -75 58 -56 75 -69
85 -59 10 10 -4 29 -67 92 -75 76 -82 80 -123 80 -36 0 -43 -3 -40 -17z"/>
<path d="M795 1040 c-63 -63 -77 -82 -67 -92 10 -10 28 3 85 60 64 63 77 72
110 72 30 0 37 4 37 20 0 17 -7 20 -43 20 -40 0 -47 -5 -122 -80z"/>
<path d="M200 891 c-5 -11 -10 -45 -10 -76 0 -65 13 -95 40 -95 11 0 20 -4 20
-10 0 -5 -6 -10 -14 -10 -31 0 -46 -30 -46 -91 0 -69 12 -99 40 -99 27 0 25
-17 -2 -26 -33 -10 -38 -22 -38 -95 0 -67 10 -89 41 -89 12 0 19 -9 21 -27 3
-26 7 -28 55 -31 50 -3 52 -2 55 25 l3 28 210 0 210 0 3 -27 c3 -27 6 -28 57
-28 51 0 54 1 57 27 2 19 10 29 28 33 24 6 25 10 28 88 l3 83 -31 12 c-31 14
-31 27 1 27 23 0 29 20 29 100 0 70 -7 84 -45 92 -17 3 -16 6 10 19 29 14 30
17 33 88 2 45 -2 78 -9 87 -9 12 -75 14 -375 14 -349 0 -364 -1 -374 -19z
m720 -81 l0 -60 -345 0 -345 0 0 60 0 60 345 0 345 0 0 -60z m-590 -100 c0 -5
-9 -10 -20 -10 -11 0 -20 5 -20 10 0 6 9 10 20 10 11 0 20 -4 20 -10z m460 0
c0 -6 -79 -10 -216 -10 -141 0 -213 3 -209 10 8 14 425 14 425 0z m75 0 c3 -5
-3 -10 -14 -10 -12 0 -21 5 -21 10 0 6 6 10 14 10 8 0 18 -4 21 -10z m55 -110
l0 -60 -345 0 -345 0 0 60 0 60 345 0 345 0 0 -60z m-595 -100 c3 -5 -3 -10
-14 -10 -12 0 -21 5 -21 10 0 6 6 10 14 10 8 0 18 -4 21 -10z m460 0 c4 -7
-68 -10 -210 -10 -142 0 -214 3 -210 10 8 14 412 14 420 0z m80 0 c3 -5 -3
-10 -14 -10 -12 0 -21 5 -21 10 0 6 6 10 14 10 8 0 18 -4 21 -10z m55 -110 l0
-60 -345 0 -345 0 0 60 0 60 345 0 345 0 0 -60z m-597 -105 c1 -5 -6 -11 -15
-13 -11 -2 -18 3 -18 13 0 17 30 18 33 0z m540 0 c1 -5 -6 -11 -15 -13 -11 -2
-18 3 -18 13 0 17 30 18 33 0z"/>
<path d="M690 815 c0 -28 4 -35 20 -35 16 0 20 7 20 35 0 28 -4 35 -20 35 -16
0 -20 -7 -20 -35z"/>
<path d="M770 815 c0 -28 4 -35 20 -35 16 0 20 7 20 35 0 28 -4 35 -20 35 -16
0 -20 -7 -20 -35z"/>
<path d="M850 815 c0 -24 5 -35 15 -35 10 0 15 11 15 35 0 24 -5 35 -15 35
-10 0 -15 -11 -15 -35z"/>
<path d="M270 815 c0 -8 9 -15 20 -15 11 0 20 7 20 15 0 8 -9 15 -20 15 -11 0
-20 -7 -20 -15z"/>
<path d="M350 815 c0 -8 7 -15 15 -15 8 0 15 7 15 15 0 8 -7 15 -15 15 -8 0
-15 -7 -15 -15z"/>
<path d="M420 815 c0 -8 9 -15 20 -15 11 0 20 7 20 15 0 8 -9 15 -20 15 -11 0
-20 -7 -20 -15z"/>
<path d="M692 603 c2 -27 8 -39 21 -41 14 -3 17 4 17 37 0 35 -3 41 -21 41
-17 0 -20 -5 -17 -37z"/>
<path d="M770 599 c0 -33 3 -40 18 -37 12 2 18 14 20 41 3 32 0 37 -17 37 -18
0 -21 -6 -21 -41z"/>
<path d="M850 600 c0 -29 4 -40 15 -40 11 0 15 11 15 40 0 29 -4 40 -15 40
-11 0 -15 -11 -15 -40z"/>
<path d="M270 599 c0 -25 33 -22 38 4 2 12 -3 17 -17 17 -15 0 -21 -6 -21 -21z"/>
<path d="M350 600 c0 -11 7 -20 15 -20 8 0 15 9 15 20 0 11 -7 20 -15 20 -8 0
-15 -9 -15 -20z"/>
<path d="M422 603 c5 -26 38 -29 38 -4 0 15 -6 21 -21 21 -14 0 -19 -5 -17
-17z"/>
<path d="M690 390 c0 -33 3 -40 20 -40 17 0 20 7 20 40 0 33 -3 40 -20 40 -17
0 -20 -7 -20 -40z"/>
<path d="M770 390 c0 -33 3 -40 20 -40 17 0 20 7 20 40 0 33 -3 40 -20 40 -17
0 -20 -7 -20 -40z"/>
<path d="M850 390 c0 -29 4 -40 15 -40 11 0 15 11 15 40 0 29 -4 40 -15 40
-11 0 -15 -11 -15 -40z"/>
<path d="M270 390 c0 -13 7 -20 20 -20 13 0 20 7 20 20 0 13 -7 20 -20 20 -13
0 -20 -7 -20 -20z"/>
<path d="M350 390 c0 -11 7 -20 15 -20 8 0 15 9 15 20 0 11 -7 20 -15 20 -8 0
-15 -9 -15 -20z"/>
<path d="M420 390 c0 -13 7 -20 20 -20 13 0 20 7 20 20 0 13 -7 20 -20 20 -13
0 -20 -7 -20 -20z"/>
<path d="M80 700 c0 -11 7 -20 15 -20 8 0 15 9 15 20 0 11 -7 20 -15 20 -8 0
-15 -9 -15 -20z"/>
<path d="M1040 701 c0 -15 6 -21 21 -21 25 0 22 33 -4 38 -12 2 -17 -3 -17
-17z"/>
<path d="M80 620 c0 -11 7 -20 15 -20 8 0 15 9 15 20 0 11 -7 20 -15 20 -8 0
-15 -9 -15 -20z"/>
<path d="M1040 619 c0 -25 33 -22 38 4 2 12 -3 17 -17 17 -15 0 -21 -6 -21
-21z"/>
<path d="M80 545 c0 -8 7 -15 15 -15 8 0 15 7 15 15 0 8 -7 15 -15 15 -8 0
-15 -7 -15 -15z"/>
<path d="M1040 545 c0 -8 9 -15 20 -15 11 0 20 7 20 15 0 8 -9 15 -20 15 -11
0 -20 -7 -20 -15z"/>
<path d="M80 470 c0 -11 7 -20 15 -20 8 0 15 9 15 20 0 11 -7 20 -15 20 -8 0
-15 -9 -15 -20z"/>
<path d="M1040 471 c0 -15 6 -21 21 -21 14 0 19 5 17 17 -5 26 -38 29 -38 4z"/>
<path d="M732 218 c-10 -10 4 -29 65 -90 73 -73 80 -78 120 -78 32 0 43 4 43
15 0 10 -10 15 -32 15 -27 0 -45 13 -108 75 -60 60 -78 73 -88 63z"/>
<path d="M327 150 c-59 -56 -81 -70 -106 -70 -21 0 -31 -5 -31 -15 0 -11 12
-15 48 -15 46 0 50 3 120 73 39 40 72 78 72 85 0 26 -31 9 -103 -58z"/>
<path d="M12 148 c-17 -17 -15 -113 2 -127 9 -7 38 -11 73 -9 l58 3 3 58 c2
35 -2 64 -9 73 -14 17 -110 19 -127 2z m106 -65 c-3 -36 -5 -38 -40 -41 l-38
-3 0 40 0 41 41 0 40 0 -3 -37z"/>
<path d="M1012 148 c-17 -17 -15 -113 2 -127 9 -7 38 -11 73 -9 l58 3 3 58 c2
35 -2 64 -9 73 -14 17 -110 19 -127 2z m106 -65 c-3 -36 -5 -38 -40 -41 l-38
-3 0 40 0 41 41 0 40 0 -3 -37z"/>
</g>
</svg>
