<?xml version="1.0" standalone="no"?>
<!DOCTYPE svg PUBLIC "-//W3C//DTD SVG 20010904//EN"
 "http://www.w3.org/TR/2001/REC-SVG-20010904/DTD/svg10.dtd">
<svg version="1.0" xmlns="http://www.w3.org/2000/svg"
 width="109.000000pt" height="110.000000pt" viewBox="0 0 109.000000 110.000000"
 preserveAspectRatio="xMidYMid meet">

<g transform="translate(0.000000,110.000000) scale(0.100000,-0.100000)"
fill="#000000" stroke="none">
<path d="M770 1087 c-19 -6 -58 -34 -86 -62 -41 -41 -53 -61 -65 -109 l-14
-58 -28 22 c-15 12 -35 19 -43 16 -12 -5 -510 -343 -534 -363 -7 -6 44 -95 58
-100 7 -3 18 -1 25 6 6 6 15 11 19 11 4 0 8 -76 8 -169 l0 -170 -53 -3 -52 -3
0 -50 0 -50 535 0 535 0 0 50 0 50 -52 3 -53 3 0 170 c0 154 6 190 25 159 13
-21 35 -8 60 33 14 24 25 48 25 53 0 5 -20 22 -44 37 -67 42 -72 51 -47 85 45
64 91 176 91 222 0 154 -159 265 -310 217z m176 -52 c59 -34 94 -96 94 -163 0
-40 -9 -68 -40 -128 -45 -87 -147 -227 -159 -219 -18 11 -133 187 -161 247
-34 72 -37 116 -11 173 49 107 177 148 277 90z m-365 -202 c35 -23 88 -98 77
-109 -2 -2 -27 12 -56 31 -28 19 -56 35 -62 35 -5 0 -111 -70 -234 -155 -124
-85 -228 -155 -233 -155 -4 0 -13 8 -20 19 -10 16 12 35 235 189 136 94 248
171 250 172 1 0 21 -12 43 -27z m50 -142 c65 -45 99 -78 144 -140 33 -44 65
-81 72 -81 6 0 19 10 27 21 14 21 16 21 40 5 l26 -16 0 -185 0 -185 -145 0
-144 0 -3 143 -3 142 -105 0 -105 0 -3 -142 -3 -143 -139 0 -140 0 0 188 0
187 193 132 c105 73 195 133 198 133 3 0 44 -27 90 -59z m363 -142 c39 -28 43
-34 33 -50 -15 -25 -22 -24 -68 9 -41 29 -46 41 -27 60 15 15 10 17 62 -19z
m-384 -314 l0 -125 -70 0 -70 0 0 125 0 125 70 0 70 0 0 -125z m430 -180 c0
-13 -62 -15 -500 -15 -438 0 -500 2 -500 15 0 13 62 15 500 15 438 0 500 -2
500 -15z"/>
<path d="M795 1015 c-76 -27 -122 -106 -105 -181 12 -52 39 -85 91 -112 77
-40 169 -8 209 74 25 51 25 87 -1 140 -35 73 -118 107 -194 79z m115 -41 c38
-23 60 -64 60 -113 0 -92 -110 -151 -188 -101 -33 21 -62 72 -62 110 0 86 114
148 190 104z"/>
<path d="M772 919 c-15 -6 -22 -15 -20 -26 5 -20 8 -20 55 -1 26 10 42 9 83
-1 59 -15 75 -8 41 20 -25 21 -116 26 -159 8z"/>
<path d="M798 869 c-38 -22 -20 -35 47 -33 74 1 89 9 61 30 -23 16 -83 18
-108 3z"/>
<path d="M821 821 c-26 -17 -6 -38 33 -33 40 5 46 16 17 32 -24 12 -32 12 -50
1z"/>
<path d="M461 654 c-76 -63 -50 -183 45 -214 89 -30 184 65 154 154 -27 83
-133 115 -199 60z m56 -71 c-3 -2 -20 -3 -39 -1 l-33 3 35 35 35 35 3 -33 c2
-19 1 -36 -1 -39z m101 19 c14 -21 13 -22 -22 -22 -35 0 -36 1 -36 36 0 35 1
36 22 22 12 -8 28 -24 36 -36z m-98 -98 c0 -35 -1 -36 -22 -22 -12 8 -28 24
-36 36 -14 21 -13 22 22 22 35 0 36 -1 36 -36z m98 14 c-8 -12 -24 -28 -36
-36 -21 -14 -22 -13 -22 22 0 35 1 36 36 36 35 0 36 -1 22 -22z"/>
<path d="M182 253 l3 -68 105 0 105 0 0 65 0 65 -108 3 -108 3 3 -68z m178 2
l0 -35 -70 0 -70 0 0 35 0 35 70 0 70 0 0 -35z"/>
<path d="M687 313 c-10 -9 -8 -105 1 -121 6 -9 35 -12 108 -10 l99 3 3 68 3
67 -104 0 c-57 0 -107 -3 -110 -7z m173 -58 l0 -35 -70 0 -70 0 0 35 0 35 70
0 70 0 0 -35z"/>
</g>
</svg>
