<?xml version="1.0" standalone="no"?>
<!DOCTYPE svg PUBLIC "-//W3C//DTD SVG 20010904//EN"
 "http://www.w3.org/TR/2001/REC-SVG-20010904/DTD/svg10.dtd">
<svg version="1.0" xmlns="http://www.w3.org/2000/svg"
 width="131.000000pt" height="131.000000pt" viewBox="0 0 131.000000 131.000000"
 preserveAspectRatio="xMidYMid meet">

<g transform="translate(0.000000,131.000000) scale(0.100000,-0.100000)"
fill="#000000" stroke="none">
<path d="M924 1292 c-58 -28 -87 -73 -92 -143 -3 -46 0 -65 18 -97 56 -100
209 -114 279 -27 44 57 52 146 17 200 -48 73 -146 102 -222 67z m146 -50 c70
-51 76 -138 15 -199 -29 -29 -39 -33 -85 -33 -47 0 -56 4 -91 39 -33 33 -39
45 -39 82 0 111 114 174 200 111z"/>
<path d="M964 1226 c-56 -31 -68 -60 -39 -90 8 -8 15 -17 15 -20 0 -3 -7 -6
-15 -6 -19 0 -19 -10 1 -38 8 -12 24 -22 35 -22 10 0 19 -4 19 -10 0 -5 9 -10
20 -10 11 0 20 5 20 10 0 6 6 10 14 10 41 0 59 59 29 92 -15 17 -15 18 0 18
20 0 23 30 5 48 -7 7 -20 12 -30 12 -10 0 -18 5 -18 10 0 13 -29 11 -56 -4z
m76 -56 c0 -5 -21 -10 -46 -10 -27 0 -43 4 -39 10 3 6 24 10 46 10 21 0 39 -4
39 -10z m-2 -67 c2 -9 -9 -13 -37 -13 -39 0 -57 10 -44 24 12 11 76 2 81 -11z"/>
<path d="M280 1200 c0 -13 -7 -20 -20 -20 -13 0 -20 -7 -20 -20 0 -13 7 -20
20 -20 13 0 20 7 20 20 0 13 7 20 20 20 13 0 20 7 20 20 0 13 -7 20 -20 20
-13 0 -20 -7 -20 -20z"/>
<path d="M330 1160 c0 -13 7 -20 20 -20 13 0 20 7 20 20 0 13 -7 20 -20 20
-13 0 -20 -7 -20 -20z"/>
<path d="M614 1165 c-135 -29 -271 -123 -346 -239 -29 -45 -35 -62 -26 -68 21
-13 24 -10 58 42 46 71 129 144 214 185 57 29 93 39 169 48 82 10 97 14 97 29
0 15 -9 18 -52 17 -29 0 -80 -7 -114 -14z"/>
<path d="M284 1125 c-7 -18 3 -35 22 -35 8 0 14 10 14 25 0 27 -27 35 -36 10z"/>
<path d="M1133 979 c-9 -9 -4 -21 17 -48 103 -129 135 -324 80 -477 -27 -75
-29 -98 -9 -102 17 -3 49 70 69 158 30 140 -13 329 -102 443 -32 40 -38 43
-55 26z"/>
<path d="M653 922 c-92 -33 -163 -103 -199 -198 -26 -69 -16 -194 21 -262 58
-107 161 -167 287 -167 67 0 84 5 144 35 113 58 174 159 174 286 0 125 -72
240 -184 294 -67 32 -172 37 -243 12z m239 -59 c137 -74 187 -232 117 -371
-51 -103 -135 -156 -250 -156 -168 0 -289 132 -277 303 9 122 82 211 208 252
47 16 147 2 202 -28z"/>
<path d="M651 824 c-172 -86 -170 -335 5 -420 47 -23 64 -26 117 -22 70 6 109
22 151 64 58 59 83 141 66 219 -34 153 -197 229 -339 159z m200 -37 c63 -33
102 -99 101 -171 -1 -83 -45 -147 -124 -180 -143 -60 -297 77 -258 226 34 125
168 184 281 125z"/>
<path d="M695 730 c-3 -5 -15 -10 -26 -10 -12 0 -19 -7 -19 -20 0 -11 5 -20
10 -20 6 0 10 -28 10 -65 0 -37 -4 -65 -10 -65 -5 0 -10 -9 -10 -20 0 -13 7
-20 19 -20 11 0 23 -4 26 -10 9 -14 42 -12 49 3 5 10 7 10 12 0 6 -15 44 -18
44 -4 0 5 11 12 24 15 29 7 52 57 38 82 -6 11 -7 27 -1 41 12 33 -5 71 -36 79
-14 3 -25 10 -25 15 0 14 -38 11 -44 -3 -5 -10 -7 -10 -12 0 -7 14 -40 16 -49
2z m125 -70 c0 -18 -7 -20 -55 -20 -48 0 -55 2 -55 20 0 18 7 20 55 20 48 0
55 -2 55 -20z m-16 -66 c9 -3 16 -15 16 -25 0 -16 -8 -19 -55 -19 -47 0 -55 3
-55 18 0 10 3 22 7 25 8 9 66 9 87 1z"/>
<path d="M105 816 c-38 -17 -80 -62 -94 -99 -28 -74 5 -162 75 -203 38 -22 54
-26 100 -22 164 14 215 211 81 312 -33 25 -121 32 -162 12z m125 -41 c48 -25
70 -62 70 -116 0 -136 -186 -178 -244 -55 -20 42 -20 69 -2 104 38 73 111 101
176 67z"/>
<path d="M154 755 c-4 -8 -14 -15 -23 -15 -40 0 -58 -69 -23 -89 16 -10 16
-10 0 -11 -30 0 -21 -39 12 -58 16 -9 30 -20 30 -24 0 -5 9 -8 20 -8 11 0 20
4 20 8 0 4 13 13 30 19 38 14 50 55 25 83 -16 18 -17 20 -2 20 10 0 17 5 17
11 0 23 -22 49 -41 49 -11 0 -22 7 -25 15 -4 8 -13 15 -20 15 -8 0 -17 -7 -20
-15z m66 -65 c0 -5 -20 -10 -45 -10 -25 0 -45 5 -45 10 0 6 20 10 45 10 25 0
45 -4 45 -10z m-7 -65 c-4 -15 -76 -12 -81 3 -3 10 7 12 39 10 24 -2 43 -7 42
-13z"/>
<path d="M211 461 c-30 -19 48 -162 133 -246 109 -107 238 -159 391 -158 114
0 175 16 175 44 0 18 -4 20 -27 14 -257 -67 -517 55 -619 289 -30 70 -31 71
-53 57z"/>
<path d="M1019 328 c-49 -28 -81 -87 -81 -147 0 -93 63 -162 155 -168 63 -5
108 16 151 70 61 76 31 209 -57 250 -49 24 -124 21 -168 -5z m157 -37 c66 -40
80 -129 29 -189 -53 -63 -133 -66 -192 -7 -29 29 -33 39 -33 85 0 47 4 56 39
91 33 33 45 39 82 39 25 0 57 -8 75 -19z"/>
<path d="M1088 283 c-1 -5 -16 -15 -33 -23 -36 -19 -44 -54 -19 -81 16 -17 16
-19 1 -19 -10 0 -17 -6 -17 -14 0 -19 27 -46 46 -46 8 0 17 -7 20 -15 4 -8 13
-15 20 -15 8 0 17 7 20 15 4 8 14 15 23 15 40 0 55 57 24 92 -15 17 -15 18 0
18 10 0 17 6 17 13 0 16 -32 47 -48 47 -7 0 -12 5 -12 10 0 12 -37 14 -42 3z
m60 -70 c2 -9 -9 -13 -37 -13 -39 0 -57 10 -44 24 12 11 76 2 81 -11z m2 -63
c0 -5 -20 -10 -45 -10 -25 0 -45 5 -45 10 0 6 20 10 45 10 25 0 45 -4 45 -10z"/>
<path d="M130 180 c0 -13 -7 -20 -20 -20 -13 0 -20 -7 -20 -20 0 -13 7 -20 20
-20 15 0 20 -7 20 -25 0 -18 5 -25 20 -25 15 0 20 7 20 25 0 20 5 25 25 25 18
0 25 5 25 20 0 15 -7 20 -25 20 -18 0 -25 5 -25 20 0 13 -7 20 -20 20 -13 0
-20 -7 -20 -20z m40 -40 c0 -13 -7 -20 -20 -20 -13 0 -20 7 -20 20 0 13 7 20
20 20 13 0 20 -7 20 -20z"/>
</g>
</svg>
