<?xml version="1.0" standalone="no"?>
<!DOCTYPE svg PUBLIC "-//W3C//DTD SVG 20010904//EN"
 "http://www.w3.org/TR/2001/REC-SVG-20010904/DTD/svg10.dtd">
<svg version="1.0" xmlns="http://www.w3.org/2000/svg"
 width="97.000000pt" height="56.000000pt" viewBox="0 0 97.000000 56.000000"
 preserveAspectRatio="xMidYMid meet">

<g transform="translate(0.000000,56.000000) scale(0.100000,-0.100000)"
fill="#000000" stroke="none">
<path d="M225 486 c-157 -51 -221 -76 -223 -88 -4 -21 5 -26 128 -68 l105 -35
5 -70 c5 -65 7 -71 39 -92 46 -31 94 -43 177 -43 85 0 161 21 197 54 24 22 27
33 27 89 l0 65 84 26 c46 14 87 26 90 26 3 0 6 -34 6 -76 0 -65 -3 -78 -21
-93 -15 -12 -22 -32 -26 -77 -8 -87 4 -104 70 -104 29 0 58 5 65 12 7 7 12 39
12 74 0 52 -4 67 -25 92 -22 26 -25 39 -27 133 l-3 104 -220 72 c-121 40 -224
72 -230 72 -5 0 -109 -33 -230 -73z m405 -40 l165 -53 -170 -55 -170 -54 -160
53 c-88 29 -162 53 -165 54 -7 1 313 108 325 109 6 0 84 -24 175 -54z m-204
-208 c35 -10 50 -8 116 15 42 14 79 23 82 19 3 -3 6 -22 6 -43 0 -35 -4 -41
-42 -61 -59 -31 -194 -32 -253 -3 -37 19 -40 23 -43 67 l-3 47 48 -15 c26 -8
66 -20 89 -26z m484 -144 c0 -27 -4 -34 -20 -34 -17 0 -20 7 -20 38 0 21 3 42
7 45 13 13 33 -16 33 -49z"/>
</g>
</svg>
